<?xml version="1.0" encoding="utf-8"?>
<!-- Generator: Adobe Illustrator 23.0.2, SVG Export Plug-In . SVG Version: 6.00 Build 0)  -->
<svg version="1.1" xmlns="http://www.w3.org/2000/svg" xmlns:xlink="http://www.w3.org/1999/xlink" x="0px" y="0px"
	 viewBox="0 0 580 266" style="enable-background:new 0 0 580 266;" xml:space="preserve">
<style type="text/css">
	.st0{fill:url(#SVGID_1_);}
	.st1{fill:url(#SVGID_2_);}
	.st2{fill:url(#SVGID_3_);}
	.st3{fill:#A05708;}
	.st4{fill:#F2DAD4;}
	.st5{fill:url(#SVGID_4_);}
	.st6{fill:#1C2B6B;}
	.st7{fill:#4EE2FF;}
	.st8{fill:#6CEEFF;}
	.st9{fill:url(#SVGID_5_);}
	.st10{fill:url(#SVGID_6_);}
	.st11{fill:#C6B3AF;}
	.st12{fill:#FFAC00;}
	.st13{fill:#1C80FF;}
	.st14{fill:url(#XMLID_3_);}
	.st15{fill:#1E3286;}
	.st16{fill:#FFFFFF;}
	.st17{fill:#40CD8A;}
</style>
<g id="Layer_1">
</g>
<g id="Layer_2">
	<g>
		<linearGradient id="SVGID_1_" gradientUnits="userSpaceOnUse" x1="172.6971" y1="113.3627" x2="206.6947" y2="158.3905">
			<stop  offset="0" style="stop-color:#D3D6DB"/>
			<stop  offset="0.9987" style="stop-color:#7A869B"/>
		</linearGradient>
		<path class="st0" d="M155.4,157.7c0,0,22.7-15.7,37.7-7.9c15.1,7.8,81.1,31.3,83.3,33.7c2.2,2.4-11.6,12.7-11.6,12.7l-89.8-24.1
			L155.4,157.7z"/>
		<linearGradient id="SVGID_2_" gradientUnits="userSpaceOnUse" x1="3.185" y1="234.2487" x2="79.2159" y2="234.2487">
			<stop  offset="0" style="stop-color:#FFAC00"/>
			<stop  offset="0.9987" style="stop-color:#FF5E00"/>
		</linearGradient>
		<path class="st1" d="M55,215.3c0,0-3.4-5.8-7.6-5.2c-4.2,0.6-4.2,3-6.6,3c-2.4,0-12.7,0-16.3-1.2c-3.6-1.2-12.7-5.4-16.9-5.4
			c-4.2,0-5.4,5.4-3.6,10.2c1.8,4.8,7.2,15.7,16.9,21.1c9.6,5.4,26.5,18.1,28.9,19.9c2.4,1.8,8.4,4.8,13.9,4.2c5.4-0.6,6-3,6-4.2
			s1.2-3,1.8-3.6c0.6-0.6,3.6-4.8,4.2-7.8c0.6-3,1.8-3.6,2.4-4.2c0.6-0.6,1.8-1.8,0.6-3.6c-1.2-1.8-2-0.6-2.8-1.2
			c-0.8-0.6-12.9-14.5-12.9-14.5L55,215.3z"/>
		<linearGradient id="SVGID_3_" gradientUnits="userSpaceOnUse" x1="60.361" y1="227.1188" x2="38.1526" y2="242.3468">
			<stop  offset="0" style="stop-color:#D3D6DB"/>
			<stop  offset="0.9987" style="stop-color:#7A869B"/>
		</linearGradient>
		<path class="st2" d="M59.6,216.4c0,0-4.3-1.4-8.6-1.4c-4.2,0-7.8,1.2-8.4,6C42,225.8,47.4,235.4,54,239c6.6,3.6,9.6,4.8,13.3,3.6
			c3.6-1.2,7.8-3.6,7.8-6.6C75.1,233,59.6,216.4,59.6,216.4z"/>
		<path class="st3" d="M45.9,215.9c1.4-0.7,3.2-0.9,5.1-0.9c0.6,0,1.2,0,1.8,0.1c0.3-0.1,0.5-0.1,0.5-0.1s-2.3-3.6-4.7-3.6
			c-2.4,0-3,0.6-3,1.2C45.6,213.1,45.7,215.6,45.9,215.9C45.9,215.9,45.9,215.9,45.9,215.9z"/>
		<path class="st4" d="M68.5,214.3c0,0-4.2,1.8-6,1.8c-1.8,0-4.2,0-4.8,1.8c-0.6,1.8-1.8,12.7,2.4,16.3c4.2,3.6,8.4,4.8,11.4,4.2
			c3-0.6,10.8-4.2,10.8-4.2L68.5,214.3z"/>
		<linearGradient id="SVGID_4_" gradientUnits="userSpaceOnUse" x1="69.2551" y1="205.8288" x2="382.5447" y2="205.8288">
			<stop  offset="0" style="stop-color:#D3D6DB"/>
			<stop  offset="0.9987" style="stop-color:#7A869B"/>
		</linearGradient>
		<path class="st5" d="M67.3,212.5c-0.3,3.1,8.2,22.3,15.7,24.1c10.2,2.4,35.5-9.6,43.4-14.5c7.6-4.7,48.2-19.9,49.4-20.5
			c1.2-0.6,2.4-2.4,3-1.2c0.6,1.2,0,7.2,4.2,10.8c4.2,3.6,32.5,21.7,36.1,25.3c3.6,3.6,19.9,16.9,25.3,19.9c5.4,3,31.9,6.6,47,4.8
			c15.1-1.8,25.3-15.7,25.3-15.7l-30.7-54.2c0,0-10.6-8.5-14.6-10.3c-4.1-1.8-10.1,0.6-10.7,2.4c-0.6,1.8-1.8,4.2-4.2,2.4
			c-2.4-1.8-55.4-31.3-72.3-35.5c-16.9-4.2-39.2,14.5-44,17.5c-4.8,3-53.6,37.4-57.2,38C79.3,206.5,67.9,207.1,67.3,212.5z"/>
		<path class="st4" d="M257,40.2c0,0,1.2,12.7,2.4,13.9c1.2,1.2,3,0.6,3,4.8s0.6,13.9,1.8,14.5c1.2,0.6,5.4-1.8,6-1.8
			c0.6,0,6.6,4.8,7.8,7.2c1.2,2.4,5.4,9,9,9.6c3.6,0.6,8.4-6.6,10.8-4.8c2.4,1.8,3.6,5.4,3.6,7.2c0,1.8,28.9-6.6,28.9-17.5
			c0-3.1-7.8-19.3-9.6-22.9s-4.2-19.3-4.8-23.5c-0.6-4.2-7.8-16.3-19.9-20.5C284.1,2.3,255.8,26.4,257,40.2z"/>
		<path class="st6" d="M293.8,2.3c7.9,2,19.9,14.5,21.7,20.5c1.8,6,6.3,21.6,6,24.7c-0.6,6.6-12,15.7-13.9,12.7
			c-1.8-3-7.5-13.2-7.8-16.9c-0.6-6-3.6-12-7.8-12c-1.2,0-4.8,5.4-5.4,8.4c-0.7,3.6,3,10.8,5.4,12.7c2.4,1.8,8.6,5.4,9.6,9
			c1.8,6.6-1.8,20.5-3.6,22.3c-1.8,1.8-7.4,5.7-10.8,4.8c-4.8-1.2-7.8-8.4-10.8-11.9c-1.2-1.4-3.7-2.6-4.9-4.3
			c-1.3-1.8,13-8.5,12.7-12.1c-1.2-14.5-5.4-31.8-14.5-30.7c-10.2,1.2-11.4,10.8-18.1,12c-3.6,0.7-18.7,3-21.7-15.7
			c-1-5.9,15.1,0.6,28.9-8.4C262.5,15,276.9-1.9,293.8,2.3z"/>
		<path class="st7" d="M267.8,63.7c-0.9,0.8-3.8-1-6.4-4c-2.6-3-4.1-6-3.2-6.8c0.9-0.8,3.8,1,6.4,4
			C267.2,59.9,268.7,62.9,267.8,63.7z"/>
		<path class="st8" d="M259.2,56.9c0.4,0.7,0.9,1.4,1.5,2.1l0.7-5.1c-0.6-0.4-1.2-0.8-1.7-1L259.2,56.9z"/>
		<path class="st8" d="M262.5,54.8l-0.7,5.4c0.4,0.4,0.7,0.7,1.1,1.1l0.7-5.5C263.2,55.5,262.9,55.1,262.5,54.8z"/>
		<linearGradient id="SVGID_5_" gradientUnits="userSpaceOnUse" x1="285.3659" y1="141.2083" x2="402.0305" y2="193.5893">
			<stop  offset="0" style="stop-color:#FFAC00"/>
			<stop  offset="0.9987" style="stop-color:#FF5E00"/>
		</linearGradient>
		<path class="st9" d="M298.6,95c0-3.1,4.8-6.6,7.8-9.6c3-3,23.5-16.9,24.1-19.3c0.6-2.4,20.5,6.6,27.7,24.7
			c7.2,18.1,15.7,75.9-5.4,114.5c-21.1,38.6-38,48.8-38.6,45.2c-0.6-3.6,0-6.6-6.6-10.2c-6.6-3.6-19.3-18.7-22.3-24.1
			c-3-5.4-16.9-31.3-15.7-34.3c1.2-3,13.3-44,19.3-56c6-12,11.4-20.5,11.4-24.1C300.4,98.1,298.6,97.5,298.6,95z"/>
		<linearGradient id="SVGID_6_" gradientUnits="userSpaceOnUse" x1="203.7715" y1="153.8021" x2="254.6236" y2="166.483">
			<stop  offset="0" style="stop-color:#4EE2FF"/>
			<stop  offset="0.9987" style="stop-color:#1C80FF"/>
		</linearGradient>
		<polygon class="st10" points="201.6,158.9 210.6,149.9 272.1,165.5 282.9,178.2 		"/>
		<path class="st11" d="M233.5,144.4c0,0-6,5.4-7.2,10.2l4.2-1.2l7.8-3.6l5.4-3l-2.4-2.4H233.5z"/>
		<path class="st4" d="M266.3,143.1c0,0-6.2-0.5-9.2-1.7c-3-1.2-6-1.8-9-1.2c-3,0.6-9-2.4-12-1.8c-3,0.6-13.3,0-13.9,0.6
			c-0.6,0.6-1.2,1.2-1.2,3c0,1.8,2.4,2.4,3,2.4c0.6,0,12,0.6,15.1,1.8c0,0-5.4,0.6-8.4,3.6c-3,3-7.8,7.2-7.8,7.8c0,0.6,0,3,0.6,3
			c0.6,0,1.2,0,1.2,0s0.6,1.2,1.2,1.2c0,0,3-1.8,3.6-1.8c0.6,0-1.8,1.2-1.2,2.4c0.6,1.2,1.8,1.8,3,1.8c1.2,0,8.4-3.6,10.8-3
			c2.4,0.6,6.6,1.2,8.4,2.4c1.8,1.2,7.8,2.4,9,1.8C260.6,164.9,266.3,143.1,266.3,143.1z"/>
		<path class="st12" d="M332.3,87.2c-12.2,1.5-15.7,22.9-14.5,31.3c0,0,11.4,41.6,7.2,41.6c-4.2,0-30.1-10.2-34.3-11.4
			c-4.2-1.2-18.7-7.8-21.1-7.8s-7.8,7.2-9.6,12c-1.8,4.8-4.2,16.3-1.2,16.3c3,0,14.5,0,16.9,1.8s18.7,15.1,27.7,18.7
			c9,3.6,41.6,12.7,47,10.8c5.4-1.8,12.7-10.8,12.7-14.5s-0.6-48.2-4.2-59.6C355.2,114.9,356.4,84.2,332.3,87.2z"/>
		<g>
			<path class="st7" d="M204,158.9l-45.8-71.7h12.6c0.4,0,0.8,0.2,1,0.5l40.1,61.3c0.3,0.5,0.3,1.1-0.1,1.5L204,158.9z"/>
			<path class="st13" d="M201.6,158.9l-44.5-69.6c-0.6-0.9,0.1-2,1.1-2h0l45.8,71.7l0,0C203.4,159.8,202.2,159.7,201.6,158.9z"/>
			<polygon class="st8" points="179.5,120.5 182.4,125.1 178.2,97.5 175.3,93.1 			"/>
			<polygon class="st8" points="184.5,128.3 189.2,135.7 184.9,107.8 180.3,100.6 			"/>
		</g>
		<path class="st13" d="M281,181.1l-78.4-17.8c-0.6-0.1-1-0.6-1-1.2v-3.2l80.6,18.8c0.9,0.2,1.2,1.3,0.7,1.9l-0.7,1
			C281.9,181,281.5,181.1,281,181.1z"/>
	</g>
	<g>
		<linearGradient id="XMLID_3_" gradientUnits="userSpaceOnUse" x1="445.6926" y1="229.096" x2="338.8545" y2="228.917">
			<stop  offset="0" style="stop-color:#D3D6DB"/>
			<stop  offset="0.9987" style="stop-color:#7A869B"/>
		</linearGradient>
		<path id="XMLID_1_" class="st14" d="M446.5,262h-45.5c-1.5,0-2.8-1.1-3-2.7l-7.2-63.2h65.9l-7.2,63.2
			C449.3,260.9,448,262,446.5,262z"/>
		<ellipse class="st6" cx="423.7" cy="196.9" rx="32.9" ry="3.7"/>
		<path class="st15" d="M420.7,74.9c-18,1.5-12,55.4-12,55.4c4.5,46.4,10.5,67.4,15,68.9c4.5,1.5,13.5-65.9,13.5-82.3
			C437.2,116.8,438.7,73.4,420.7,74.9z"/>
		<path class="st16" d="M423,191.6C422.9,191.6,422.9,191.6,423,191.6c-0.5-0.1-0.8-0.4-0.7-0.8c5.9-48.7-1.4-110-1.5-110.6
			c0-0.4,0.2-0.8,0.7-0.8c0.4-0.1,0.8,0.2,0.8,0.7c0.1,0.6,7.4,62,1.5,111C423.7,191.4,423.3,191.6,423,191.6z"/>
		<path class="st12" d="M366.8,49.4c-1.5,7.5,7.5,9,9,19.5s-3,13.5-1.5,19.5c1.5,6,10.5,7.5,12,22.5c1.5,15-4.5,13.5-3,22.5
			c1.5,9,10.5,9,12,16.5c1.5,7.5,1.5,18,4.5,26.9c3,9,12,22.5,16.5,22.5c4.5,0,16.5-25.4,13.5-32.9c-3-7.5-7.5-9-7.5-15
			s6-21,4.5-31.4c-1.5-10.5-15-15-16.5-22.5c-1.5-7.5,3-26.9-7.5-35.9S368.3,42,366.8,49.4z"/>
		<path class="st17" d="M509,65.9c5.3,5.3-12,7.5-13.5,18c-1.5,10.5-1.5,15-7.5,21c-6,6-15,7.5-13.5,16.5c1.5,9,4.5,18,0,22.5
			c-4.5,4.5-15,4.5-18,12c-3,7.5-1.5,16.5-7.5,24c-6,7.5-15,22.5-22.5,19.5c-7.5-3-3-37.4,0-43.4c3-6,6-10.5,6-15s-1.5-12,1.5-19.5
			c3-7.5,19.5-10.5,21-15c1.5-4.5,3-28.4,12-34.4C476.1,65.9,500.1,56.9,509,65.9z"/>
		<path class="st16" d="M429,196.6c-0.1,0-0.3,0-0.4-0.1c-0.4-0.2-0.5-0.7-0.3-1c0.1-0.1,6.1-10.1,7.3-15.2c0.3-1.3,0.7-3.3,1.2-5.6
			c1.7-8.3,4.2-20.9,8-24.7c5.6-5.6,14.5-22.7,20.8-44.6c7.7-27,33.2-34.9,33.4-34.9c0.4-0.1,0.8,0.1,0.9,0.5
			c0.1,0.4-0.1,0.8-0.5,0.9c-0.2,0.1-25,7.8-32.4,33.9c-6.3,22.1-15.4,39.5-21.1,45.2c-3.5,3.5-6.1,16.3-7.6,23.9
			c-0.5,2.3-0.9,4.3-1.2,5.6c-1.3,5.3-7.2,15.2-7.5,15.6C429.5,196.4,429.3,196.6,429,196.6z"/>
		<path class="st16" d="M416.1,193.3c-0.4,0-0.7-0.3-0.7-0.7c0-0.2-0.1-19.6-5.8-25.3c-5.8-5.8-9.1-23.5-10.7-57.4
			c-1.5-30.8-23.5-56.2-23.8-56.4c-0.3-0.3-0.2-0.8,0.1-1.1c0.3-0.3,0.8-0.2,1.1,0.1c0.2,0.3,22.6,26,24.1,57.3
			c1.6,33,4.8,51,10.3,56.4c6.1,6.1,6.3,25.6,6.3,26.4C416.9,192.9,416.6,193.3,416.1,193.3C416.1,193.3,416.1,193.3,416.1,193.3z"
			/>
	</g>
</g>
</svg>
