<?xml version="1.0" encoding="utf-8"?>
<!-- Generator: Adobe Illustrator 23.0.2, SVG Export Plug-In . SVG Version: 6.00 Build 0)  -->
<svg version="1.1" id="Layer_1" xmlns="http://www.w3.org/2000/svg" xmlns:xlink="http://www.w3.org/1999/xlink" x="0px" y="0px"
	 viewBox="0 0 607.6 185.9" style="enable-background:new 0 0 607.6 185.9;" xml:space="preserve">
<style type="text/css">
	.st0{fill:#FFFFFF;}
	.st1{fill-rule:evenodd;clip-rule:evenodd;fill:#FFFFFF;}
</style>
<path class="st0" d="M168.6,143.2c-8.1,2.3-16.4,2.9-24.7,1.7c-23-3.2-42.4-19.6-49.3-41.8c-4.8-15.4-3.3-31.7,4.2-46
	c7.5-14.3,20.1-24.8,35.5-29.6c8.6-2.7,17.4-3.4,26.2-2.2c23,3.2,42.4,19.6,49.3,41.8c5.6,17.9,2.5,37.5-8.3,52.8
	c0.5,2.2,1.7,33.5,1.7,33.5S170.8,144,168.6,143.2z M158,42.8c-6.2-0.9-12.5-0.3-18.6,1.5c-10.9,3.4-19.8,10.8-25.1,20.9
	c-5.3,10.1-6.3,21.7-3,32.5c4.9,15.7,18.6,27.3,34.9,29.6c6.2,0.9,12.5,0.3,18.6-1.5c1.7-0.5,3.6-0.7,5.5-0.4
	c4.8,0.7,10.1,3.7,16.3,7.3c0,0,0.1,0.1,0.1,0.1c-3-9.4-5-16.3-0.9-21.5c8.5-11,11.2-25.6,7-38.9C188.1,56.7,174.4,45.1,158,42.8z"
	/>
<path class="st1" d="M4.7,42.1c7.5,0,15,0,22.5,0c9.7,13.5,17.3,27.7,26.3,40.3c9-13.1,17-27.2,26-40.3c7.6,0,15.2,0,22.8,0
	c-13.3,21.5-25.3,41-38.8,62.5c0,11.7,0,23.4,0,35c-6.7,0-13.4,0-20.1,0c0-6.1,0-11.8,0-17.5c0-5.7,1.1-12.1,0-17.5
	c-0.4-2.1-3-5.1-4.7-7.9C27.3,78.4,15.3,59.8,4.7,42.1z"/>
<path class="st1" d="M290.8,139.3c0,0.1,0,0.2,0,0.3c-7.9,0-15.8,0-23.6,0c-6.1-8.5-11.1-18.1-17.5-26.3c-4.4,0-8.8,0-13.1,0
	c-0.2,8.7,0.4,18.1-0.3,26.3c-6.4-0.2-13.6,0.4-19.6-0.3c-0.1-32.5,0.1-64.7,0.3-96.9c15.1,0.8,27.2-1.2,40.3,0
	c19.6,1.7,33,19.8,31.8,37.9c-0.9,12.8-8.8,23.1-18.1,28.3C277.4,119.1,283.9,129.4,290.8,139.3z M236.5,62.9c0,10.1,0,20.2,0,30.4
	c7.1,0,14.2,0,21.3,0c10.5-2.8,15-17.9,7.3-26.3c-5.6-6.1-16.2-5-28-5C236.7,62.1,236.5,62.4,236.5,62.9z"/>
<path class="st0" d="M393.2,84.1c1.7-5.6,2.6-10.9,2.6-16c0-5.1-0.7-9.8-2.2-14.2c-1.5-4.4-3.8-8.2-6.8-11.5
	c-3.1-3.2-6.9-5.8-11.5-7.6c-4.6-1.9-10.1-2.8-16.3-2.8c-5.4,0-10.6,0.6-15.7,1.7c-5.1,1.1-9.9,2.6-14.3,4.5
	c-4.5,1.9-8.6,4.1-12.3,6.5c-3.7,2.5-7,5-9.7,7.7c-2.7,2.7-4.8,5.3-6.3,8.1c-1.5,2.7-2.3,5.2-2.3,7.6c0,3.7,2.1,5.6,6.3,5.6
	c2.2,0,4.2-0.5,5.9-1.6c1.7-1.1,3.2-2.5,4.6-4.2c1.4-1.7,2.9-3.6,4.4-5.8c1.5-2.1,3.2-4.3,5.2-6.4c1.8-1.6,3.9-3.1,6.3-4.5
	c2.5-1.4,5.2-2.6,8.1-3.6c2.9-1,6-1.8,9.2-2.5c3.2-0.6,6.4-0.9,9.6-0.9c3.4,0,6.4,0.6,8.9,1.7c2.5,1.1,4.6,2.7,6.3,4.7
	c1.6,2,2.9,4.4,3.7,7.1c0.8,2.7,1.2,5.7,1.2,8.9c0,3.8-0.7,7.9-2.1,12.2c-1.4,4.3-3.3,8.6-5.9,12.8c-2.5,4.3-5.5,8.4-9.1,12.4
	c-3.5,4-7.4,7.6-11.7,10.8c-4.3,3.2-8.8,5.9-13.7,8c-4.9,2.1-10,3.5-15.2,4c2.1-2.9,4.4-6.1,6.6-9.6c2.3-3.4,4.5-6.9,6.7-10.5
	c2.2-3.6,4.3-7.1,6.3-10.7c2-3.5,3.9-6.8,5.6-9.9c1.7-3.1,3.3-5.9,4.6-8.3c1.3-2.5,2.4-4.5,3.3-6c0.8-1.4,1.5-2.9,2-4.5
	c0.5-1.6,0.7-3,0.7-4.5c0-1.8-0.5-3.3-1.4-4.5c-0.9-1.3-2.5-1.9-4.7-1.9c-0.5,0-1.2,0.1-2.1,0.3c-0.9,0.2-2,0.7-3.2,1.4
	c-1.2,0.7-2.5,1.8-3.9,3.1c-1.4,1.3-2.8,3.1-4.2,5.3l-30.1,59.8c-0.8,1.1-1.4,2.3-1.9,3.7c-0.5,1.3-0.7,2.7-0.7,4.1
	c0,1.8,0.6,3.3,1.7,4.6c1.1,1.2,2.7,1.9,4.6,1.9c9,0,17.3-1.1,25.1-3.2c7.7-2.1,14.8-5,21.2-8.7c6.4-3.7,12-7.9,16.9-12.7
	c4.9-4.8,9-9.9,12.4-15.3C388.9,95.1,391.5,89.6,393.2,84.1z"/>
<path class="st0" d="M476.9,78.1c1.2,1,3.3,1.4,6.4,1.4c1.6,0,3-0.3,4.2-1c1.2-0.6,2.1-1.4,2.9-2.4c0.7-1,1.3-2,1.6-3.1
	c0.4-1.1,0.5-2.1,0.5-3.1c0-1.7-0.6-3-1.7-4.1c-1.1-1.1-3.1-1.6-5.9-1.6c-1.7,0-3.2,0.3-4.4,1c-1.2,0.6-2.3,1.4-3.1,2.4
	c-0.8,1-1.5,2.1-1.9,3.3c-0.4,1.2-0.6,2.4-0.6,3.5C475,75.9,475.7,77.2,476.9,78.1z"/>
<path class="st0" d="M601.6,113.8c-0.9-0.9-2-1.4-3.2-1.4c-0.3,0-1.4,0.4-3.5,1.2c-2,0.8-4.4,1.9-7.2,3.3c-2.8,1.3-5.7,2.9-8.8,4.5
	c-3.1,1.7-5.8,3.4-8.1,5.2l16.4-34.2c0.2-0.6,0.4-1.2,0.4-1.9c0-0.8-0.2-1.6-0.7-2.4c-0.4-0.8-1.2-1.1-2.2-1.1c-0.6,0-1.2,0-1.7,0.1
	c-0.6,0-1.2,0.2-1.9,0.5c-0.7,0.3-1.5,0.7-2.5,1.2c-0.9,0.6-2.1,1.4-3.5,2.5L545,121c-0.7,0.7-1.5,1.3-2.3,1.8
	c-0.8,0.5-1.5,0.8-2,0.8c-0.6,0-0.9-0.4-0.9-1.1c0-0.8,0.3-2,1-3.4l13.4-27.9c0.2-0.4,0.3-1,0.3-1.5c0-1.2-0.5-2.1-1.6-2.8
	c-1-0.7-2.3-1.1-3.8-1.1c-1.5,0-3,0.4-4.5,1.3c-1.6,0.9-2.8,2.2-3.8,4.1c-1.4,3.6-2.7,6.7-3.8,9.3c-1.1,2.7-2.2,5-3.1,7
	c-0.3,0.7-0.7,1.4-1,2.1c-0.8,0.7-1.7,1.4-2.7,2.2c-1.7,1.4-3.5,2.8-5.5,4.2c-1.9,1.4-3.8,2.7-5.7,4c-1.9,1.3-3.8,2.4-5.6,3.4
	c-1.8,1-3.4,1.8-5,2.4c-1.5,0.6-2.8,0.9-3.8,0.9c-0.8,0-1.4-0.2-1.7-0.7c-0.3-0.4-0.4-1-0.4-1.8c0-1.2,0.2-2.5,0.8-4
	c0.5-1.5,1-2.8,1.6-3.9c1.2-2.6,2.7-5.7,4.4-9.3c1.7-3.6,3.5-7.4,5.4-11.4c1.9-4,3.9-8.1,5.9-12.3c2-4.2,4-8.3,5.9-12.2
	c1.9-3.9,3.7-7.5,5.4-10.8c1.7-3.3,3.1-6.1,4.4-8.4c0.6-1.1,1.2-2.2,1.6-3.2c0.4-1,0.6-1.9,0.6-2.8c0-1.9-0.6-3.2-1.9-4
	c-1.2-0.8-2.6-1.2-4.1-1.2c-1.5,0-3,0.4-4.5,1.2c-1.5,0.8-2.7,2.1-3.5,4L502,93.2c-1.5,3.1-3.1,6.6-4.8,10.3
	c-1.3,2.9-2.6,5.7-3.9,8.6c-0.3,0.3-0.6,0.7-1,1.1c-1.1,1.1-2.3,2.3-3.6,3.5c-1.3,1.2-2.7,2.4-4.1,3.6c-1.5,1.2-3,2.3-4.5,3.2
	c-1.5,0.9-3,1.7-4.5,2.3c-1.5,0.6-2.9,0.9-4.3,0.9c-1.2,0-2.2-0.2-2.8-0.6c-0.7-0.4-1-1.3-1-2.6c0-1.2,0.2-2.6,0.7-4
	c0.5-1.5,1-3,1.7-4.5c0.7-1.5,1.4-3,2.1-4.4c0.7-1.4,1.4-2.8,2-4c0.5-1,0.9-1.9,1.2-2.6c0.3-0.7,0.7-1.5,1.1-2.2
	c0.4-0.8,0.8-1.6,1.2-2.5c0.4-0.9,1-2,1.7-3.2c0.2-0.4,0.4-0.9,0.5-1.3c0.1-0.4,0.1-0.9,0.2-1.3c0-1.9-0.7-3.4-2-4.6
	c-1.3-1.2-2.9-1.8-4.8-1.8c-1.1,0-2.2,0.3-3.3,0.9c-1.1,0.6-2,1.6-2.9,2.9c-0.9,1.8-1.7,3.5-2.5,5.1c-0.7,1.4-1.3,2.7-1.9,4
	c-0.6,1.3-1,2.3-1.3,2.9c-0.7,1.7-1.5,3.5-2.5,5.4c-1,1.9-1.9,3.8-2.8,5.8c-1.4,1.3-2.7,2.6-4,3.7c-1.2,1-2.4,2-3.6,3
	c-1.2,1-2.5,1.9-3.6,2.7c-1.2,0.8-2.3,1.4-3.3,1.9c-1,0.5-1.9,0.7-2.6,0.7c-1.2,0-2-0.5-2.5-1.4c-0.5-1-0.7-2.2-0.7-3.6
	c0-1.1,0.2-2.5,0.5-4.1c0.3-1.6,0.8-3.3,1.3-5.1c0.5-1.8,1.1-3.6,1.8-5.5c0.7-1.9,1.3-3.7,1.9-5.4c0.6-1.7,1.2-3.3,1.7-4.7
	c0.5-1.4,0.9-2.6,1.1-3.5c0-0.2,0.1-0.5,0.1-0.8c0-1.2-0.6-2.3-1.8-3.4c-1.2-1-2.7-1.5-4.5-1.5c-0.6,0-1.3,0.1-2.1,0.4
	c-0.8,0.3-1.6,0.6-2.3,0.9c-0.9,0.4-1.7,0.8-2.6,1.2c-1-0.9-2.1-1.8-3.4-2.6c-1.1-0.6-2.5-1.2-4.1-1.8c-1.6-0.5-3.5-0.8-5.6-0.8
	c-4.1,0-7.9,0.7-11.3,2.2c-3.4,1.4-6.4,3.3-9,5.6c-2.6,2.3-4.9,4.9-6.8,7.9c-1.9,2.9-3.5,5.9-4.8,8.9c-1.2,3-2.2,5.9-2.8,8.7
	c-0.6,2.8-0.9,5.2-0.9,7.2c0,2.7,0.5,5,1.5,6.8c1,1.9,2.3,3.4,3.8,4.5c1.5,1.2,3.1,2,4.8,2.5c1.7,0.5,3.2,0.8,4.4,0.8
	c2.5,0,4.9-0.6,7.4-1.7c2.4-1.1,4.7-2.6,7-4.4c2.2-1.8,4.3-3.8,6.2-5.9c1.9-2.2,3.6-4.3,5.2-6.3c-0.3,0.9-0.6,1.8-0.7,2.8
	c-0.1,1-0.2,2-0.2,3c0,1.6,0.2,3.1,0.6,4.6c0.4,1.5,1,2.8,1.8,4c0.8,1.2,1.8,2.1,3,2.9c1.2,0.7,2.7,1.1,4.4,1.1
	c1.9,0,3.9-0.4,6.1-1.4c2.1-0.9,4.3-2.1,6.6-3.5c2.2-1.4,4.4-3,6.5-4.7c0.8-0.7,1.6-1.3,2.3-2c0.2,3.8,1.3,6.6,3.4,8.5
	c2.3,2,5.4,3,9.3,3c2.8,0,5.5-0.5,8.3-1.6c2.7-1.1,5.5-2.5,8.2-4.3c2.3-1.5,4.5-3.2,6.6-5c0,0.2,0,0.4,0,0.6c0,1.4,0.2,2.8,0.5,4
	c0.3,1.3,0.9,2.4,1.7,3.3c0.8,0.9,1.9,1.7,3.2,2.2c1.3,0.5,3,0.8,5,0.8c2.9,0,5.9-0.6,9-1.8c3.1-1.2,6.2-2.7,9.4-4.7
	c2.2-1.4,4.4-2.9,6.5-4.5c-0.7,2.2-1,4.3-1,6.1c0,1.8,0.6,3,1.8,3.8c1.2,0.8,2.6,1.1,4.2,1.1c5.2,0,10.7-2.3,16.7-6.9
	c6-4.6,12.6-11.2,19.9-19.9l-14.6,29.6c-3.2,4.1-5.9,7.6-8,10.6c-2.1,3-3.8,5.7-5.1,8.2c-1.3,2.4-2.2,4.7-2.7,6.7
	c-0.5,2-0.8,4.1-0.8,6.1c0,2.2,0.6,3.9,1.8,5.2c1.2,1.3,2.8,1.9,4.8,1.9c4.7,0,9.1-4.1,13-12.3c0.1-0.1,0.4-0.8,1-2.1
	c0.6-1.3,1.3-2.9,2.2-5c0.9-2,1.9-4.4,3-7.1c1.1-2.7,2.2-5.5,3.3-8.4c1.5-1.4,2.9-2.7,4.2-3.7c1.3-1,2.6-2,4-3
	c1.3-0.9,2.8-1.8,4.3-2.7c1.5-0.9,3.2-1.9,5.2-2.9c2-1.1,4.2-2.3,6.7-3.6c2.5-1.3,5.5-3,8.9-4.9c2.4-1.3,4.1-2.7,5-4.1
	c0.9-1.4,1.4-2.8,1.4-4C603,115.9,602.5,114.7,601.6,113.8z M422,106.8c-0.7,1.4-1.7,2.9-2.9,4.6c-1.2,1.7-2.5,3.5-4,5.2
	c-1.5,1.8-3,3.4-4.5,4.9c-1.5,1.5-3,2.7-4.5,3.7c-1.4,1-2.7,1.4-3.8,1.4c-1.4,0-2.5-0.3-3.3-0.9c-0.8-0.6-1.4-1.3-1.9-2.2
	c-0.4-0.9-0.7-1.8-0.8-2.9c-0.1-1-0.2-2.1-0.2-3c0-2.4,0.5-4.8,1.5-7.1c1-2.4,2.3-4.5,4-6.4c1.7-1.9,3.6-3.4,5.7-4.6
	c2.1-1.2,4.4-1.8,6.7-1.8c0.8,0,1.7,0.1,2.7,0.4c1,0.3,2,0.7,3,1.2c0.9,0.5,1.7,1.2,2.3,1.9c0.6,0.8,1,1.6,1,2.5
	C423.1,104.4,422.7,105.4,422,106.8z"/>
</svg>
